<svg xmlns="http://www.w3.org/2000/svg" fill="currentColor" viewBox="0 0 24 24">
  <path d="M11.8709677,2.2 C6.27822581,2.2 2,6.44596774 2,12.0387097 C2,16.5104839 4.81451613,20.3370968 8.83467742,21.683871 C9.35080645,21.7766129 9.53225806,21.4580645 9.53225806,21.1959677 C9.53225806,20.9459677 9.52016129,19.5669355 9.52016129,18.7201613 C9.52016129,18.7201613 6.69758065,19.325 6.10483871,17.5185484 C6.10483871,17.5185484 5.64516129,16.3451613 4.98387097,16.0427419 C4.98387097,16.0427419 4.06048387,15.4096774 5.0483871,15.4217742 C5.0483871,15.4217742 6.05241935,15.5024194 6.60483871,16.4620968 C7.48790323,18.0185484 8.96774194,17.5709677 9.54435484,17.3048387 C9.63709677,16.6596774 9.89919355,16.2120968 10.1895161,15.9459677 C7.93548387,15.6959677 5.66129032,15.3693548 5.66129032,11.4903226 C5.66129032,10.3814516 5.96774194,9.825 6.61290323,9.11532258 C6.50806452,8.85322581 6.16532258,7.77258065 6.71774194,6.37741935 C7.56048387,6.11532258 9.5,7.46612903 9.5,7.46612903 C10.3064516,7.24032258 11.1733871,7.1233871 12.0322581,7.1233871 C12.891129,7.1233871 13.7580645,7.24032258 14.5645161,7.46612903 C14.5645161,7.46612903 16.5040323,6.11129032 17.3467742,6.37741935 C17.8991935,7.7766129 17.5564516,8.85322581 17.4516129,9.11532258 C18.0967742,9.82903226 18.4919355,10.3854839 18.4919355,11.4903226 C18.4919355,15.3814516 16.1169355,15.6919355 13.8629032,15.9459677 C14.233871,16.2645161 14.5483871,16.8693548 14.5483871,17.8169355 C14.5483871,19.1758065 14.5362903,20.8572581 14.5362903,21.1879032 C14.5362903,21.45 14.7217742,21.7685484 15.233871,21.6758065 C19.266129,20.3370968 22,16.5104839 22,12.0387097 C22,6.44596774 17.4637097,2.2 11.8709677,2.2 Z"></path>
</svg>
